<svg width="19" height="18" viewBox="0 0 19 18" fill="none" xmlns="http://www.w3.org/2000/svg">
<path d="M16.7291 12.2598L14.1891 11.9698C13.8904 11.9347 13.5877 11.9678 13.3036 12.0665C13.0196 12.1652 12.7616 12.327 12.5491 12.5398L10.7091 14.3798C7.87046 12.9357 5.56313 10.6284 4.11906 7.78977L5.96906 5.93977C6.39906 5.50977 6.60906 4.90977 6.53906 4.29977L6.24906 1.77977C6.19258 1.29186 5.95853 0.841791 5.59153 0.515361C5.22452 0.188932 4.75023 0.00896555 4.25906 0.0097683H2.52906C1.39906 0.0097683 0.459064 0.949768 0.529064 2.07977C1.05906 10.6198 7.88906 17.4398 16.4191 17.9698C17.5491 18.0398 18.4891 17.0998 18.4891 15.9698V14.2398C18.4991 13.2298 17.7391 12.3798 16.7291 12.2598Z" fill="#810225"/>
</svg>
